<svg width="200" height="200" viewBox="0 0 200 200" fill="none" xmlns="http://www.w3.org/2000/svg">
<path d="M127.42 147.387C128.755 144.45 127.553 140.178 125.684 136.173L109.13 100.128C93.1103 116.148 77.0903 132.836 61.0703 149.123L60.5363 148.989C53.9948 117.083 68.8133 85.977 96.0473 71.9595L90.5738 60.078C88.0373 54.6045 85.1003 51.801 75.0878 51.801H69.4808V51H96.5813C96.9818 53.136 98.0498 55.539 98.9843 57.5415L140.636 147.387H127.42ZM69.4808 132.969C84.2993 121.221 97.3823 108.672 106.994 95.589L97.2488 74.3625C76.9568 84.7755 64.4078 107.604 69.4808 132.969Z" fill="white"/>
</svg>
