<svg width="200" height="200" viewBox="0 0 200 200" fill="none" xmlns="http://www.w3.org/2000/svg">
<path d="M120.35 145.387C121.685 142.45 120.616 138.312 118.881 134.707L101.259 95.8585C90.312 113.748 74.826 131.236 55.602 150.46L54 149.392C56.136 128.032 57.471 88.783 92.3145 75.8335L84.8385 59.413C82.4355 54.073 79.098 51.136 69.219 51.136H64.2795V49H102.594C102.995 51.136 104.063 53.539 104.997 55.5415L145.848 145.387H120.35ZM73.6245 124.828C84.438 112.813 92.181 100.131 97.788 86.5135L94.851 80.1055C80.433 88.9165 71.355 105.204 73.6245 124.828Z" fill="white"/>
</svg>
